<svg data-v-fde0c5aa="" xmlns="http://www.w3.org/2000/svg" viewBox="0 0 300 300" class="iconLeft"><!----><defs data-v-fde0c5aa=""><!----></defs><rect data-v-fde0c5aa="" fill="#FFEDAF" x="0" y="0" width="300px" height="300px" class="logo-background-square"></rect><defs data-v-fde0c5aa=""><!----></defs><g data-v-fde0c5aa="" id="9d712235-80aa-4d6f-9eeb-a2f13c0ef23f" fill="#C3A757" transform="matrix(2.2671468822957705,0,0,2.2671468822957705,74.4793616056977,131.39806000373278)"><path d="M1.86 5.80C1.86 4.97 2.44 4.51 3.63 4.51C4.41 4.51 5.07 4.63 5.74 4.82L5.74 3.78C5.18 3.63 4.58 3.49 3.51 3.49C1.54 3.49 0.63 4.40 0.63 5.81C0.63 6.94 1.26 7.64 2.93 8.85C4.37 9.87 4.77 10.37 4.77 11.06C4.77 12.04 4.12 12.52 2.88 12.52C1.89 12.52 0.98 12.32 0.49 12.19L0.49 13.26C0.87 13.36 1.79 13.57 2.91 13.57C4.87 13.57 6.01 12.70 6.01 11.00C6.01 9.79 5.31 9.09 3.84 8.01C2.23 6.82 1.86 6.50 1.86 5.80ZM10.11 6.61C8.16 6.61 7 7.74 7 9.95C7 12.33 8.41 13.57 10.65 13.57C11.41 13.57 12.24 13.44 12.87 13.19L12.87 12.15C12.08 12.40 11.21 12.52 10.63 12.52C9.21 12.52 8.39 11.84 8.23 10.40L12.98 10.40L12.98 9.83C12.98 7.71 11.94 6.61 10.11 6.61ZM10.09 7.56C11.19 7.56 11.73 8.40 11.73 9.53L8.22 9.53C8.33 8.18 9.06 7.56 10.09 7.56ZM15.74 13.43L15.74 13.02C15.74 9.24 16.88 7.77 18.17 7.77C18.38 7.77 18.56 7.78 18.72 7.83L18.72 6.66C18.54 6.62 18.38 6.61 18.13 6.61C16.91 6.61 16.14 7.62 15.71 9.09L15.68 6.75L14.46 6.75L14.46 13.43ZM19.77 2.84L19.77 13.01L19.78 13.01L19.78 13.15C20.50 13.43 21.60 13.57 22.39 13.57C24.65 13.57 25.87 12.24 25.87 9.76C25.87 7.48 24.79 6.61 23.35 6.61C22.29 6.61 21.52 7.08 21.04 8.19L21.04 2.84ZM23.07 7.66C24.00 7.66 24.60 8.25 24.60 9.83C24.60 11.68 23.79 12.59 22.34 12.59C21.94 12.59 21.50 12.54 21.04 12.45C21.07 8.37 22.11 7.66 23.07 7.66ZM33.28 13.43C33.15 12.78 33.12 11.63 33.12 10.57L33.12 7.22L33.11 7.22L33.11 7.03C32.40 6.75 31.29 6.61 30.51 6.61C28.24 6.61 27.02 7.94 27.02 10.42C27.02 12.70 28.10 13.57 29.55 13.57C30.63 13.57 31.42 13.08 31.89 11.89C31.92 12.38 31.98 12.87 32.07 13.43ZM29.82 12.52C28.90 12.52 28.31 11.93 28.31 10.35C28.31 8.50 29.11 7.59 30.55 7.59C30.94 7.59 31.39 7.64 31.85 7.73L31.85 7.88C31.79 11.83 30.77 12.52 29.82 12.52ZM36.25 13.43L36.25 12.82C36.27 10.15 37.00 7.66 38.58 7.66C39.26 7.66 39.55 8.13 39.55 9.31L39.55 13.43L40.80 13.43L40.80 8.90C40.80 7.46 40.29 6.61 38.99 6.61C37.60 6.61 36.72 7.41 36.22 8.85L36.19 6.75L34.97 6.75L34.97 13.43ZM42.48 3.61L42.48 6.86L43.55 6.86L43.55 3.61ZM46.20 8.33C46.20 7.83 46.55 7.60 47.40 7.60C47.91 7.60 48.65 7.69 49 7.84L49 6.85C48.69 6.72 48.03 6.61 47.33 6.61C45.64 6.61 44.97 7.24 44.97 8.27C44.97 9.31 45.57 9.76 46.80 10.46C47.82 11.06 48.06 11.37 48.06 11.76C48.06 12.36 47.45 12.59 46.66 12.59C46.09 12.59 45.53 12.50 44.88 12.29L44.88 13.29C45.35 13.45 46.12 13.57 46.84 13.57C48.08 13.57 49.29 13.20 49.29 11.75C49.29 10.60 48.62 10.18 47.64 9.60C46.56 8.96 46.20 8.75 46.20 8.33ZM56.64 13.43L56.64 4.70L59.29 4.70L59.29 3.63L52.71 3.63L52.71 4.70L55.37 4.70L55.37 13.43ZM65.00 13.43L65.00 6.75L63.74 6.75L63.74 8.13C63.71 9.97 63.24 12.50 61.56 12.50C60.82 12.50 60.45 12.08 60.45 11.02L60.45 6.75L59.19 6.75L59.19 11.27C59.19 12.71 59.75 13.55 61.21 13.55C62.52 13.55 63.32 12.91 63.77 11.77L63.90 13.43ZM66.85 3.72L66.85 5.10L68.12 5.10L68.12 3.72ZM66.85 6.75L66.85 11.56C66.85 12.85 67.33 13.47 68.67 13.47C68.82 13.47 68.96 13.45 69.12 13.44L69.12 12.43C68.98 12.46 68.88 12.46 68.75 12.46C68.28 12.46 68.12 12.14 68.12 11.54L68.12 6.75ZM74.47 6.68C74.13 6.64 73.77 6.61 73.35 6.61C70.91 6.61 69.85 7.91 69.85 9.79C69.85 12.25 71.72 13.50 74.09 13.50C74.34 13.50 74.48 13.48 74.73 13.47L74.73 12.46C74.51 12.49 74.31 12.50 74.10 12.50C72.23 12.50 71.13 11.34 71.13 9.74C71.13 8.44 71.85 7.62 73.50 7.62C73.84 7.62 74.12 7.63 74.47 7.69ZM81.83 13.43C81.70 12.78 81.68 11.63 81.68 10.57L81.68 7.22L81.66 7.22L81.66 7.03C80.95 6.75 79.84 6.61 79.06 6.61C76.79 6.61 75.57 7.94 75.57 10.42C75.57 12.70 76.65 13.57 78.11 13.57C79.18 13.57 79.97 13.08 80.44 11.89C80.47 12.38 80.53 12.87 80.63 13.43ZM78.37 12.52C77.45 12.52 76.86 11.93 76.86 10.35C76.86 8.50 77.66 7.59 79.10 7.59C79.49 7.59 79.94 7.64 80.40 7.73L80.40 7.88C80.35 11.83 79.32 12.52 78.37 12.52Z"></path></g><defs data-v-fde0c5aa=""><!----></defs><g data-v-fde0c5aa="" id="14af72e6-a9e8-4501-888f-be9446d64449" stroke="#722E18" fill="none" transform="matrix(0.4033975642793543,0,0,0.4033975642793543,39.59660243572065,131.35173867880854)"><path stroke-width="2" stroke-linecap="round" stroke-miterlimit="10" d="M1 72V24m22 48V24M1 24c0-1.105 1.895-3 3-3M23 24c0-1.105-1.895-3-3-3M4 21c3.317 0 5-3.578 5-8V3M20 21c-3.317 0-5-3.578-5-8V3"></path><ellipse stroke="#000" stroke-width="2" stroke-linecap="round" stroke-miterlimit="10" cx="12" cy="2.5" rx="3" ry="1.5"></ellipse><ellipse stroke="#000" stroke-width="2" stroke-linecap="round" stroke-miterlimit="10" cx="12" cy="72.5" rx="11" ry="5.5"></ellipse><ellipse stroke="#000" stroke-width="2" stroke-linecap="round" stroke-miterlimit="10" cx="12" cy="43.5" rx="11" ry="5.5"></ellipse><path stroke="#000" stroke-width="2" stroke-linecap="round" stroke-miterlimit="10" d="M1 43h22v30H1z"></path><path stroke="#FFF" stroke-width="2" stroke-linecap="round" stroke-miterlimit="10" d="M21.174 44.001c-1.612 2.351-5.529 2.668-8.167 2.667"></path><path stroke="#000" stroke-width="2" stroke-linecap="round" stroke-miterlimit="10" d="M9.84 20.667c-1.019 2.405-1.37 2.816-3.629 4.075-1.454.81-2.504 2.002-2.371 3.758"></path><ellipse stroke="#000" stroke-width="2" stroke-linecap="round" stroke-miterlimit="10" cx="12" cy="5.5" rx="3" ry="1.5"></ellipse><ellipse stroke="#000" stroke-width="2" stroke-linecap="round" stroke-miterlimit="10" cx="12" cy="7.5" rx="3" ry="1.5"></ellipse><path stroke="#000" stroke-width="2" stroke-linecap="round" stroke-miterlimit="10" d="M45.191 85.687c.347 5.469-9.756 4.125-12.191 5.769M57 91.455c-2.435-1.644-12.538-.3-12.191-5.769M35.543 35.976c-1.949 4.214-2.1 10.266-2.076 14.936.016 3.278.997 5.955 3.121 8.222 2.146 2.291 4.724 2.423 7.489 3.371M54.458 35.976c1.951 4.214 2.1 10.267 2.075 14.937-.019 3.278-.995 5.955-3.121 8.222-2.146 2.291-4.724 2.423-7.489 3.371M45 87V62"></path><ellipse stroke="#000" stroke-width="2" stroke-linecap="round" stroke-miterlimit="10" cx="45" cy="35.628" rx="8.998" ry="4.499"></ellipse><ellipse stroke="#000" stroke-width="2" stroke-linecap="round" stroke-miterlimit="10" cx="45" cy="50.853" rx="11.418" ry="5.886"></ellipse><path d="M55.418 56.133c0 3.111-4.664 5.625-10.418 5.625s-10.418-2.514-10.418-5.625S39.246 50.508 45 50.508s10.418 2.513 10.418 5.625z"></path><path stroke="#FFF" stroke-width="2" stroke-linecap="round" stroke-miterlimit="10" d="M35.311 51.201c1.963 2.857 6.723 3.244 9.932 3.243"></path></g><!----></svg>